<svg width="18" height="11" viewBox="0 0 18 11" fill="none" xmlns="http://www.w3.org/2000/svg">
<path d="M17.5116 1.34819C17.1805 0.713043 16.4368 0.474186 15.8613 0.821615C15.7039 0.9139 14.4336 2.18961 12.4196 4.2959C10.6608 6.1199 9.20591 7.61819 9.18963 7.61819C9.17334 7.61819 7.71849 6.1199 5.95963 4.29047C3.94563 2.18961 2.67534 0.9139 2.51791 0.821615C2.0782 0.555615 1.44306 0.642472 1.10106 1.01161C0.759058 1.3699 0.666772 1.9779 0.9002 2.39047C0.965343 2.51533 2.70249 4.36104 4.75449 6.49447C7.63163 9.48561 8.54363 10.3976 8.70649 10.4628C8.97791 10.5713 9.40134 10.5713 9.67277 10.4628C9.83563 10.3976 10.7368 9.49647 13.6248 6.49447C15.6768 4.36104 17.4139 2.51533 17.4845 2.39047C17.6311 2.12447 17.6473 1.5979 17.5116 1.34819Z" fill="#0D0D0D"/>
</svg>
