<svg width="39" height="35" viewBox="0 0 39 35" fill="none" xmlns="http://www.w3.org/2000/svg">
<path d="M29.9995 34.8335C29.8589 34.7476 29.6792 34.5679 29.5933 34.4272C29.437 34.1772 29.437 34.0132 29.437 24.3647C29.437 14.7163 29.437 14.5522 29.5933 14.3022C29.6792 14.1616 29.8589 13.9819 29.9995 13.896C30.2495 13.7476 30.4058 13.7397 33.812 13.7397C37.2183 13.7397 37.3745 13.7476 37.6245 13.896C37.7651 13.9819 37.9448 14.1616 38.0308 14.3022C38.187 14.5522 38.187 14.7163 38.187 24.3647C38.187 34.0132 38.187 34.1772 38.0308 34.4272C37.9448 34.5679 37.7651 34.7476 37.6245 34.8335C37.3745 34.9819 37.2183 34.9897 33.812 34.9897C30.4058 34.9897 30.2495 34.9819 29.9995 34.8335Z" fill="white"/>
<path d="M5.74951 33.5914C4.6167 33.2242 3.64795 32.232 3.31201 31.0914C3.1167 30.4352 3.14795 29.3727 3.37451 28.7086L3.56201 28.1617L3.14795 27.7867C2.3042 27.0133 1.93701 26.1617 1.93701 24.9664C1.93701 24.4195 1.98389 24.1148 2.12451 23.7086L2.31201 23.1617L1.89795 22.7867C1.06201 22.0211 0.687012 21.1617 0.687012 19.982C0.687012 18.8258 1.06982 17.9508 1.89795 17.193L2.31201 16.818L2.12451 16.2711C1.89795 15.607 1.8667 14.5445 2.06201 13.8883C2.39795 12.732 3.37451 11.7477 4.52295 11.3883C4.96826 11.2477 5.31201 11.2398 10.2964 11.2398H15.5933L15.6323 7.74765C15.6636 3.86484 15.6714 3.80234 16.2026 2.79453C17.0464 1.19297 19.0776 0.10703 21.4292 0.0132797C22.2808 -0.0179703 22.3901 -0.00234529 22.6245 0.13828C22.7651 0.23203 22.9448 0.411717 23.0386 0.552342C23.187 0.79453 23.1948 0.88828 23.1558 1.86484C23.1245 2.44297 23.0698 3.39609 23.0308 3.97422C22.937 5.4039 22.937 8.34922 23.0386 8.9664C23.1714 9.81797 23.8511 11.0758 25.6245 13.7945C26.3823 14.9508 26.4136 14.9898 26.6714 14.9898H26.937V23.8102V32.6305L25.9526 32.9898C25.4136 33.1852 24.6714 33.4352 24.2964 33.5445L23.6245 33.7398L14.9058 33.732C6.6792 33.732 6.17139 33.7242 5.74951 33.5914Z" fill="white"/>
</svg>
